<mxfile host="app.diagrams.net" modified="2023-11-07T20:21:30.526Z" agent="Mozilla/5.0 (Windows NT 10.0; Win64; x64) AppleWebKit/537.36 (KHTML, like Gecko) Chrome/119.0.0.0 Safari/537.36" etag="ugmCf3utY7kCFiBx9tAF" version="22.0.8" type="github">
  <diagram name="PÃ¡gina-1" id="9AFz10BB1eop-qFi6Q9z">
    <mxGraphModel dx="4003" dy="1736" grid="1" gridSize="10" guides="1" tooltips="1" connect="1" arrows="1" fold="1" page="1" pageScale="1" pageWidth="827" pageHeight="1169" math="0" shadow="0">
      <root>
        <mxCell id="0" />
        <mxCell id="1" parent="0" />
        <mxCell id="oUEj_hWbi_ymV9TPl1oD-1" value="&lt;font style=&quot;&quot;&gt;&lt;b style=&quot;border-color: var(--border-color); font-size: 49px;&quot;&gt;&lt;u style=&quot;border-color: var(--border-color);&quot;&gt;Party Protocol: A Comprehensive Overview&lt;/u&gt;&lt;/b&gt;&lt;br&gt;&lt;/font&gt;" style="text;html=1;strokeColor=none;fillColor=none;align=center;verticalAlign=middle;whiteSpace=wrap;rounded=0;fontColor=#2B2B2B;" vertex="1" parent="1">
          <mxGeometry x="-682" y="140" width="1036" height="70" as="geometry" />
        </mxCell>
        <mxCell id="oUEj_hWbi_ymV9TPl1oD-2" value="&lt;div style=&quot;&quot;&gt;&lt;div style=&quot;line-height: 19px;&quot;&gt;&lt;img alt=&quot;PartyDAO&quot; src=&quot;https://code4rena.com/_next/image?url=https%3A%2F%2Fstorage.googleapis.com%2Fcdn-c4-uploads-v0%2Fuploads%2FXo2RZzzvmHJ.0&amp;amp;w=256&amp;amp;q=75&quot;&gt;&lt;br&gt;&lt;/div&gt;&lt;/div&gt;" style="text;html=1;strokeColor=none;fillColor=none;align=center;verticalAlign=middle;whiteSpace=wrap;rounded=0;" vertex="1" parent="1">
          <mxGeometry x="286" y="2360" width="256" height="240" as="geometry" />
        </mxCell>
        <mxCell id="oUEj_hWbi_ymV9TPl1oD-4" value="" style="html=1;shadow=0;dashed=1;align=center;verticalAlign=middle;shape=mxgraph.arrows2.arrow;dy=0.6;dx=40;direction=east;notch=0;rounded=1;fontFamily=Helvetica;fontSize=12;fontColor=#FFFFFF;fillColor=#000000;gradientColor=#00CCCC;strokeColor=#000000;strokeWidth=2;" vertex="1" parent="1">
          <mxGeometry x="-600" y="300" width="420" height="70" as="geometry" />
        </mxCell>
        <mxCell id="oUEj_hWbi_ymV9TPl1oD-6" value="&lt;div style=&quot;&quot;&gt;&lt;font style=&quot;font-size: 30px;&quot;&gt;&lt;b&gt;Establishes a Standard for Group Coordination&lt;/b&gt;&lt;/font&gt;&lt;br&gt;&lt;/div&gt;" style="rounded=0;whiteSpace=wrap;html=1;fontFamily=Helvetica;fontSize=11;fillColor=none;align=center;dashed=1;strokeWidth=3;strokeColor=none;" vertex="1" parent="1">
          <mxGeometry x="-140" y="312.24" width="690" height="45.52" as="geometry" />
        </mxCell>
        <mxCell id="oUEj_hWbi_ymV9TPl1oD-9" value="&lt;div style=&quot;&quot;&gt;&lt;div style=&quot;line-height: 19px;&quot;&gt;&lt;img alt=&quot;Party Logo&quot; src=&quot;https://docs.partydao.org/img/logo.svg&quot;&gt;&lt;br&gt;&lt;/div&gt;&lt;/div&gt;" style="text;html=1;strokeColor=none;fillColor=none;align=center;verticalAlign=middle;whiteSpace=wrap;rounded=0;" vertex="1" parent="1">
          <mxGeometry x="-760" y="130" width="80" height="90" as="geometry" />
        </mxCell>
        <mxCell id="oUEj_hWbi_ymV9TPl1oD-10" value="&lt;b style=&quot;font-size: 35px;&quot;&gt;&lt;font style=&quot;font-size: 35px;&quot;&gt;&lt;span style=&quot;background-color: initial;&quot;&gt;Party Prtocol&lt;/span&gt;&lt;br&gt;&lt;/font&gt;&lt;/b&gt;&lt;h1 style=&quot;background-image: none; background-position: initial; background-size: initial; background-repeat: initial; background-attachment: initial; background-origin: initial; background-clip: initial; border: none; box-sizing: border-box; font-style: normal; margin: 0.25em 0px 0.25rem; padding: 0px; vertical-align: baseline; line-height: 100%; font-variant-ligatures: normal; font-variant-caps: normal; letter-spacing: normal; orphans: 2; text-indent: 0px; text-transform: none; widows: 2; word-spacing: 0px; -webkit-text-stroke-width: 0px; text-decoration-thickness: initial; text-decoration-style: initial; text-decoration-color: initial; font-size: 35px;&quot; class=&quot;type__headline__xs&quot;&gt;&lt;/h1&gt;&lt;font style=&quot;font-size: 35px;&quot;&gt;&lt;font color=&quot;#b3b3b3&quot; style=&quot;font-size: 35px;&quot;&gt;Protocol for group coordination.&lt;/font&gt;&lt;br&gt;&lt;/font&gt;" style="text;html=1;strokeColor=none;fillColor=none;align=center;verticalAlign=middle;whiteSpace=wrap;rounded=0;fontSize=11;fontFamily=Helvetica;fontColor=default;" vertex="1" parent="1">
          <mxGeometry x="162" y="2610" width="504" height="100" as="geometry" />
        </mxCell>
        <mxCell id="oUEj_hWbi_ymV9TPl1oD-11" value="&lt;font style=&quot;font-size: 20px;&quot;&gt;Made by Catellatech C4 Wardens&lt;/font&gt;" style="text;html=1;strokeColor=none;fillColor=none;align=center;verticalAlign=middle;whiteSpace=wrap;rounded=0;" vertex="1" parent="1">
          <mxGeometry x="256" y="2710" width="314.5" height="50" as="geometry" />
        </mxCell>
        <mxCell id="oUEj_hWbi_ymV9TPl1oD-12" value="" style="endArrow=none;html=1;rounded=0;" edge="1" parent="1">
          <mxGeometry relative="1" as="geometry">
            <mxPoint x="-821" y="2763.87" as="sourcePoint" />
            <mxPoint x="1649" y="2760" as="targetPoint" />
          </mxGeometry>
        </mxCell>
        <mxCell id="oUEj_hWbi_ymV9TPl1oD-13" value="" style="resizable=0;html=1;whiteSpace=wrap;align=right;verticalAlign=bottom;" connectable="0" vertex="1" parent="oUEj_hWbi_ymV9TPl1oD-12">
          <mxGeometry x="1" relative="1" as="geometry" />
        </mxCell>
        <mxCell id="oUEj_hWbi_ymV9TPl1oD-14" value="" style="endArrow=none;html=1;rounded=0;" edge="1" parent="1">
          <mxGeometry relative="1" as="geometry">
            <mxPoint x="-821" y="43.86999999999989" as="sourcePoint" />
            <mxPoint x="1649" y="40" as="targetPoint" />
          </mxGeometry>
        </mxCell>
        <mxCell id="oUEj_hWbi_ymV9TPl1oD-15" value="" style="resizable=0;html=1;whiteSpace=wrap;align=right;verticalAlign=bottom;" connectable="0" vertex="1" parent="oUEj_hWbi_ymV9TPl1oD-14">
          <mxGeometry x="1" relative="1" as="geometry" />
        </mxCell>
        <mxCell id="oUEj_hWbi_ymV9TPl1oD-16" value="" style="line;strokeWidth=4;direction=south;html=1;dashed=1;" vertex="1" parent="1">
          <mxGeometry x="-729.5" y="230" width="19" height="2190" as="geometry" />
        </mxCell>
        <mxCell id="oUEj_hWbi_ymV9TPl1oD-20" value="&lt;div style=&quot;&quot;&gt;&lt;font style=&quot;font-size: 30px;&quot;&gt;&lt;b&gt;On-chain Functionality for Group Behaviors&lt;/b&gt;&lt;/font&gt;&lt;br&gt;&lt;/div&gt;" style="rounded=0;whiteSpace=wrap;html=1;fontFamily=Helvetica;fontSize=11;fillColor=none;align=center;dashed=1;strokeWidth=3;strokeColor=none;gradientColor=none;" vertex="1" parent="1">
          <mxGeometry x="-140" y="412.24" width="640" height="45.52" as="geometry" />
        </mxCell>
        <mxCell id="oUEj_hWbi_ymV9TPl1oD-21" value="" style="html=1;shadow=0;dashed=1;align=center;verticalAlign=middle;shape=mxgraph.arrows2.arrow;dy=0.6;dx=40;direction=east;notch=0;rounded=1;fontFamily=Helvetica;fontSize=12;fontColor=#FFFFFF;fillColor=#000000;gradientColor=#00CCCC;strokeColor=#000000;strokeWidth=2;" vertex="1" parent="1">
          <mxGeometry x="-600" y="400" width="420" height="70" as="geometry" />
        </mxCell>
        <mxCell id="oUEj_hWbi_ymV9TPl1oD-22" value="" style="line;strokeWidth=4;direction=south;html=1;dashed=1;" vertex="1" parent="1">
          <mxGeometry x="-40" y="480" width="30" height="310" as="geometry" />
        </mxCell>
        <mxCell id="oUEj_hWbi_ymV9TPl1oD-23" value="" style="html=1;shadow=0;dashed=1;align=center;verticalAlign=middle;shape=mxgraph.arrows2.arrow;dy=0.6;dx=40;direction=east;notch=0;rounded=1;fontFamily=Helvetica;fontSize=12;fontColor=#FFFFFF;fillColor=#000000;gradientColor=#00CCCC;strokeColor=#000000;strokeWidth=2;" vertex="1" parent="1">
          <mxGeometry y="480" width="420" height="70" as="geometry" />
        </mxCell>
        <mxCell id="oUEj_hWbi_ymV9TPl1oD-24" value="&lt;div style=&quot;&quot;&gt;&lt;font style=&quot;font-size: 30px;&quot;&gt;Formation (Bringing Group Together, Pooling Resources)&lt;/font&gt;&lt;br&gt;&lt;/div&gt;" style="rounded=0;whiteSpace=wrap;html=1;fontFamily=Helvetica;fontSize=11;fontColor=default;gradientColor=none;fillColor=#00FFFF;align=center;dashed=1;strokeWidth=3;strokeColor=#4D4D4D;" vertex="1" parent="1">
          <mxGeometry x="440" y="492.24" width="780" height="45.52" as="geometry" />
        </mxCell>
        <mxCell id="oUEj_hWbi_ymV9TPl1oD-25" value="" style="html=1;shadow=0;dashed=1;align=center;verticalAlign=middle;shape=mxgraph.arrows2.arrow;dy=0.6;dx=40;direction=east;notch=0;rounded=1;fontFamily=Helvetica;fontSize=12;fontColor=#FFFFFF;fillColor=#000000;gradientColor=#00CCCC;strokeColor=#000000;strokeWidth=2;" vertex="1" parent="1">
          <mxGeometry y="580" width="420" height="70" as="geometry" />
        </mxCell>
        <mxCell id="oUEj_hWbi_ymV9TPl1oD-26" value="&lt;div style=&quot;&quot;&gt;&lt;font style=&quot;font-size: 30px;&quot;&gt;Coordination (Collective Decisions, Actions)&lt;/font&gt;&lt;br&gt;&lt;/div&gt;" style="rounded=0;whiteSpace=wrap;html=1;fontFamily=Helvetica;fontSize=11;fontColor=default;gradientColor=none;fillColor=#00FFFF;align=center;dashed=1;strokeWidth=3;strokeColor=#4D4D4D;" vertex="1" parent="1">
          <mxGeometry x="440" y="592.24" width="610" height="45.52" as="geometry" />
        </mxCell>
        <mxCell id="oUEj_hWbi_ymV9TPl1oD-27" value="" style="html=1;shadow=0;dashed=1;align=center;verticalAlign=middle;shape=mxgraph.arrows2.arrow;dy=0.6;dx=40;direction=east;notch=0;rounded=1;fontFamily=Helvetica;fontSize=12;fontColor=#FFFFFF;fillColor=#000000;gradientColor=#00CCCC;strokeColor=#000000;strokeWidth=2;" vertex="1" parent="1">
          <mxGeometry y="690" width="420" height="70" as="geometry" />
        </mxCell>
        <mxCell id="oUEj_hWbi_ymV9TPl1oD-28" value="&lt;div style=&quot;&quot;&gt;&lt;font style=&quot;font-size: 30px;&quot;&gt;Distribution (Sharing Resources)&lt;/font&gt;&lt;br&gt;&lt;/div&gt;" style="rounded=0;whiteSpace=wrap;html=1;fontFamily=Helvetica;fontSize=11;fontColor=default;gradientColor=none;fillColor=#00FFFF;align=center;dashed=1;strokeWidth=3;strokeColor=#4D4D4D;" vertex="1" parent="1">
          <mxGeometry x="440" y="702.24" width="460" height="45.52" as="geometry" />
        </mxCell>
        <mxCell id="oUEj_hWbi_ymV9TPl1oD-29" value="" style="html=1;shadow=0;dashed=1;align=center;verticalAlign=middle;shape=mxgraph.arrows2.arrow;dy=0.6;dx=40;direction=east;notch=0;rounded=1;fontFamily=Helvetica;fontSize=12;fontColor=#FFFFFF;fillColor=#000000;gradientColor=#00CCCC;strokeColor=#000000;strokeWidth=2;" vertex="1" parent="1">
          <mxGeometry x="-600" y="817.76" width="420" height="70" as="geometry" />
        </mxCell>
        <mxCell id="oUEj_hWbi_ymV9TPl1oD-31" value="&lt;div style=&quot;&quot;&gt;&lt;b&gt;&lt;font style=&quot;font-size: 30px;&quot;&gt;Primary Phases: Crowdfund and Governance&lt;/font&gt;&lt;/b&gt;&lt;br&gt;&lt;/div&gt;" style="rounded=0;whiteSpace=wrap;html=1;fontFamily=Helvetica;fontSize=11;fillColor=none;align=center;dashed=1;strokeWidth=3;strokeColor=none;" vertex="1" parent="1">
          <mxGeometry x="-165" y="830" width="690" height="45.52" as="geometry" />
        </mxCell>
        <mxCell id="oUEj_hWbi_ymV9TPl1oD-32" value="" style="line;strokeWidth=4;direction=south;html=1;dashed=1;" vertex="1" parent="1">
          <mxGeometry x="-40" y="887.76" width="30" height="492.24" as="geometry" />
        </mxCell>
        <mxCell id="oUEj_hWbi_ymV9TPl1oD-33" value="" style="html=1;shadow=0;dashed=1;align=center;verticalAlign=middle;shape=mxgraph.arrows2.arrow;dy=0.6;dx=40;direction=east;notch=0;rounded=1;fontFamily=Helvetica;fontSize=12;fontColor=#FFFFFF;fillColor=#000000;gradientColor=#00CCCC;strokeColor=#000000;strokeWidth=2;" vertex="1" parent="1">
          <mxGeometry y="930" width="420" height="70" as="geometry" />
        </mxCell>
        <mxCell id="oUEj_hWbi_ymV9TPl1oD-34" value="&lt;div style=&quot;&quot;&gt;&lt;b&gt;&lt;font style=&quot;font-size: 30px;&quot;&gt;Crowdfund&lt;/font&gt;&lt;/b&gt;&lt;br&gt;&lt;/div&gt;" style="rounded=0;whiteSpace=wrap;html=1;fontFamily=Helvetica;fontSize=11;fillColor=none;align=center;dashed=1;strokeWidth=3;strokeColor=none;" vertex="1" parent="1">
          <mxGeometry x="440" y="942.24" width="180" height="45.52" as="geometry" />
        </mxCell>
        <mxCell id="oUEj_hWbi_ymV9TPl1oD-35" value="" style="line;strokeWidth=4;direction=south;html=1;dashed=1;" vertex="1" parent="1">
          <mxGeometry x="515" y="987.76" width="30" height="310" as="geometry" />
        </mxCell>
        <mxCell id="oUEj_hWbi_ymV9TPl1oD-36" value="&lt;div style=&quot;&quot;&gt;&lt;font style=&quot;font-size: 30px;&quot;&gt;Users Contribute ETH&lt;/font&gt;&lt;br&gt;&lt;/div&gt;" style="rounded=0;whiteSpace=wrap;html=1;fontFamily=Helvetica;fontSize=11;fontColor=default;gradientColor=none;fillColor=#00FFFF;align=center;dashed=1;strokeWidth=3;strokeColor=#4D4D4D;" vertex="1" parent="1">
          <mxGeometry x="1001" y="1007.24" width="329" height="45.52" as="geometry" />
        </mxCell>
        <mxCell id="oUEj_hWbi_ymV9TPl1oD-37" value="" style="html=1;shadow=0;dashed=1;align=center;verticalAlign=middle;shape=mxgraph.arrows2.arrow;dy=0.6;dx=40;direction=east;notch=0;rounded=1;fontFamily=Helvetica;fontSize=12;fontColor=#FFFFFF;fillColor=#000000;gradientColor=#00CCCC;strokeColor=#000000;strokeWidth=2;" vertex="1" parent="1">
          <mxGeometry x="560" y="995" width="420" height="70" as="geometry" />
        </mxCell>
        <mxCell id="oUEj_hWbi_ymV9TPl1oD-38" value="" style="html=1;shadow=0;dashed=1;align=center;verticalAlign=middle;shape=mxgraph.arrows2.arrow;dy=0.6;dx=40;direction=east;notch=0;rounded=1;fontFamily=Helvetica;fontSize=12;fontColor=#FFFFFF;fillColor=#000000;gradientColor=#00CCCC;strokeColor=#000000;strokeWidth=2;" vertex="1" parent="1">
          <mxGeometry x="560" y="1100" width="420" height="70" as="geometry" />
        </mxCell>
        <mxCell id="oUEj_hWbi_ymV9TPl1oD-39" value="&lt;div style=&quot;&quot;&gt;&lt;font style=&quot;font-size: 30px;&quot;&gt;Become Party Members&lt;/font&gt;&lt;br&gt;&lt;/div&gt;" style="rounded=0;whiteSpace=wrap;html=1;fontFamily=Helvetica;fontSize=11;fontColor=default;gradientColor=none;fillColor=#00FFFF;align=center;dashed=1;strokeWidth=3;strokeColor=#4D4D4D;" vertex="1" parent="1">
          <mxGeometry x="1001" y="1112.24" width="349" height="45.52" as="geometry" />
        </mxCell>
        <mxCell id="oUEj_hWbi_ymV9TPl1oD-40" value="" style="html=1;shadow=0;dashed=1;align=center;verticalAlign=middle;shape=mxgraph.arrows2.arrow;dy=0.6;dx=40;direction=east;notch=0;rounded=1;fontFamily=Helvetica;fontSize=12;fontColor=#FFFFFF;fillColor=#000000;gradientColor=#00CCCC;strokeColor=#000000;strokeWidth=2;" vertex="1" parent="1">
          <mxGeometry x="560" y="1210" width="420" height="70" as="geometry" />
        </mxCell>
        <mxCell id="oUEj_hWbi_ymV9TPl1oD-41" value="&lt;div style=&quot;&quot;&gt;&lt;font style=&quot;font-size: 30px;&quot;&gt;Voting Rights, Ownership&lt;/font&gt;&lt;br&gt;&lt;/div&gt;" style="rounded=0;whiteSpace=wrap;html=1;fontFamily=Helvetica;fontSize=11;fontColor=default;gradientColor=none;fillColor=#00FFFF;align=center;dashed=1;strokeWidth=3;strokeColor=#4D4D4D;" vertex="1" parent="1">
          <mxGeometry x="1001" y="1222.24" width="369" height="45.52" as="geometry" />
        </mxCell>
        <mxCell id="oUEj_hWbi_ymV9TPl1oD-42" value="" style="html=1;shadow=0;dashed=1;align=center;verticalAlign=middle;shape=mxgraph.arrows2.arrow;dy=0.6;dx=40;direction=east;notch=0;rounded=1;fontFamily=Helvetica;fontSize=12;fontColor=#FFFFFF;fillColor=#000000;gradientColor=#00CCCC;strokeColor=#000000;strokeWidth=2;" vertex="1" parent="1">
          <mxGeometry y="1320" width="420" height="70" as="geometry" />
        </mxCell>
        <mxCell id="oUEj_hWbi_ymV9TPl1oD-43" value="&lt;div style=&quot;&quot;&gt;&lt;b&gt;&lt;font style=&quot;font-size: 30px;&quot;&gt;Governance&lt;/font&gt;&lt;/b&gt;&lt;br&gt;&lt;/div&gt;" style="rounded=0;whiteSpace=wrap;html=1;fontFamily=Helvetica;fontSize=11;fillColor=none;align=center;dashed=1;strokeWidth=3;strokeColor=none;" vertex="1" parent="1">
          <mxGeometry x="440" y="1332.24" width="180" height="45.52" as="geometry" />
        </mxCell>
        <mxCell id="oUEj_hWbi_ymV9TPl1oD-44" value="" style="line;strokeWidth=4;direction=south;html=1;dashed=1;" vertex="1" parent="1">
          <mxGeometry x="515" y="1377.76" width="30" height="192.24" as="geometry" />
        </mxCell>
        <mxCell id="oUEj_hWbi_ymV9TPl1oD-45" value="" style="html=1;shadow=0;dashed=1;align=center;verticalAlign=middle;shape=mxgraph.arrows2.arrow;dy=0.6;dx=40;direction=east;notch=0;rounded=1;fontFamily=Helvetica;fontSize=12;fontColor=#FFFFFF;fillColor=#000000;gradientColor=#00CCCC;strokeColor=#000000;strokeWidth=2;" vertex="1" parent="1">
          <mxGeometry x="560" y="1380" width="420" height="70" as="geometry" />
        </mxCell>
        <mxCell id="oUEj_hWbi_ymV9TPl1oD-46" value="&lt;div style=&quot;&quot;&gt;&lt;font style=&quot;font-size: 30px;&quot;&gt;Party Members Create/Vote on Proposals&lt;/font&gt;&lt;br&gt;&lt;/div&gt;" style="rounded=0;whiteSpace=wrap;html=1;fontFamily=Helvetica;fontSize=11;fontColor=default;gradientColor=none;fillColor=#00FFFF;align=center;dashed=1;strokeWidth=3;strokeColor=#4D4D4D;" vertex="1" parent="1">
          <mxGeometry x="1001" y="1392.24" width="579" height="45.52" as="geometry" />
        </mxCell>
        <mxCell id="oUEj_hWbi_ymV9TPl1oD-47" value="" style="html=1;shadow=0;dashed=1;align=center;verticalAlign=middle;shape=mxgraph.arrows2.arrow;dy=0.6;dx=40;direction=east;notch=0;rounded=1;fontFamily=Helvetica;fontSize=12;fontColor=#FFFFFF;fillColor=#000000;gradientColor=#00CCCC;strokeColor=#000000;strokeWidth=2;" vertex="1" parent="1">
          <mxGeometry x="560" y="1497.76" width="420" height="70" as="geometry" />
        </mxCell>
        <mxCell id="oUEj_hWbi_ymV9TPl1oD-48" value="&lt;div style=&quot;&quot;&gt;&lt;font style=&quot;font-size: 30px;&quot;&gt;Execute Actions as a Group&lt;/font&gt;&lt;br&gt;&lt;/div&gt;" style="rounded=0;whiteSpace=wrap;html=1;fontFamily=Helvetica;fontSize=11;fontColor=default;gradientColor=none;fillColor=#00FFFF;align=center;dashed=1;strokeWidth=3;strokeColor=#4D4D4D;" vertex="1" parent="1">
          <mxGeometry x="1001" y="1510" width="400" height="45.52" as="geometry" />
        </mxCell>
        <mxCell id="oUEj_hWbi_ymV9TPl1oD-49" value="" style="html=1;shadow=0;dashed=1;align=center;verticalAlign=middle;shape=mxgraph.arrows2.arrow;dy=0.6;dx=40;direction=east;notch=0;rounded=1;fontFamily=Helvetica;fontSize=12;fontColor=#FFFFFF;fillColor=#000000;gradientColor=#00CCCC;strokeColor=#000000;strokeWidth=2;" vertex="1" parent="1">
          <mxGeometry x="-600" y="1650" width="420" height="70" as="geometry" />
        </mxCell>
        <mxCell id="oUEj_hWbi_ymV9TPl1oD-50" value="&lt;div style=&quot;&quot;&gt;&lt;b&gt;&lt;font style=&quot;font-size: 30px;&quot;&gt;Crowdfund Contributions&lt;/font&gt;&lt;/b&gt;&lt;br&gt;&lt;/div&gt;" style="rounded=0;whiteSpace=wrap;html=1;fontFamily=Helvetica;fontSize=11;fillColor=none;align=center;dashed=1;strokeWidth=3;strokeColor=none;" vertex="1" parent="1">
          <mxGeometry x="-165" y="1662.24" width="395" height="45.52" as="geometry" />
        </mxCell>
        <mxCell id="oUEj_hWbi_ymV9TPl1oD-51" value="" style="line;strokeWidth=4;direction=south;html=1;dashed=1;" vertex="1" parent="1">
          <mxGeometry x="-40" y="1707.76" width="30" height="242.24" as="geometry" />
        </mxCell>
        <mxCell id="oUEj_hWbi_ymV9TPl1oD-52" value="" style="html=1;shadow=0;dashed=1;align=center;verticalAlign=middle;shape=mxgraph.arrows2.arrow;dy=0.6;dx=40;direction=east;notch=0;rounded=1;fontFamily=Helvetica;fontSize=12;fontColor=#FFFFFF;fillColor=#000000;gradientColor=#00CCCC;strokeColor=#000000;strokeWidth=2;" vertex="1" parent="1">
          <mxGeometry x="-6" y="1719" width="420" height="70" as="geometry" />
        </mxCell>
        <mxCell id="oUEj_hWbi_ymV9TPl1oD-53" value="&lt;div style=&quot;&quot;&gt;&lt;font style=&quot;font-size: 30px;&quot;&gt;Primary Method for Creating/Joining Parties&lt;/font&gt;&lt;br&gt;&lt;/div&gt;" style="rounded=0;whiteSpace=wrap;html=1;fontFamily=Helvetica;fontSize=11;fontColor=default;gradientColor=none;fillColor=#00FFFF;align=center;dashed=1;strokeWidth=3;strokeColor=#4D4D4D;" vertex="1" parent="1">
          <mxGeometry x="440" y="1731.24" width="620" height="45.52" as="geometry" />
        </mxCell>
        <mxCell id="oUEj_hWbi_ymV9TPl1oD-55" value="" style="html=1;shadow=0;dashed=1;align=center;verticalAlign=middle;shape=mxgraph.arrows2.arrow;dy=0.6;dx=40;direction=east;notch=0;rounded=1;fontFamily=Helvetica;fontSize=12;fontColor=#FFFFFF;fillColor=#000000;gradientColor=#00CCCC;strokeColor=#000000;strokeWidth=2;" vertex="1" parent="1">
          <mxGeometry x="-5" y="1830" width="420" height="70" as="geometry" />
        </mxCell>
        <mxCell id="oUEj_hWbi_ymV9TPl1oD-56" value="&lt;div style=&quot;&quot;&gt;&lt;font style=&quot;font-size: 30px;&quot;&gt;Customizable for Different Behaviors&lt;/font&gt;&lt;br&gt;&lt;/div&gt;" style="rounded=0;whiteSpace=wrap;html=1;fontFamily=Helvetica;fontSize=11;fontColor=default;gradientColor=none;fillColor=#00FFFF;align=center;dashed=1;strokeWidth=3;strokeColor=#4D4D4D;" vertex="1" parent="1">
          <mxGeometry x="440" y="1842.24" width="530" height="45.52" as="geometry" />
        </mxCell>
        <mxCell id="oUEj_hWbi_ymV9TPl1oD-57" value="" style="line;strokeWidth=4;direction=south;html=1;dashed=1;" vertex="1" parent="1">
          <mxGeometry x="511.25" y="1910" width="30" height="100" as="geometry" />
        </mxCell>
        <mxCell id="oUEj_hWbi_ymV9TPl1oD-58" value="" style="html=1;shadow=0;dashed=1;align=center;verticalAlign=middle;shape=mxgraph.arrows2.arrow;dy=0.6;dx=40;direction=east;notch=0;rounded=1;fontFamily=Helvetica;fontSize=12;fontColor=#FFFFFF;fillColor=#000000;gradientColor=#00CCCC;strokeColor=#000000;strokeWidth=2;" vertex="1" parent="1">
          <mxGeometry x="550" y="1962.24" width="420" height="70" as="geometry" />
        </mxCell>
        <mxCell id="oUEj_hWbi_ymV9TPl1oD-59" value="&lt;div style=&quot;&quot;&gt;&lt;font style=&quot;font-size: 30px;&quot;&gt;Acquiring NFTs, Raising ETH, etc.&lt;/font&gt;&lt;br&gt;&lt;/div&gt;" style="rounded=0;whiteSpace=wrap;html=1;fontFamily=Helvetica;fontSize=11;fontColor=default;gradientColor=none;fillColor=#00FFFF;align=center;dashed=1;strokeWidth=3;strokeColor=#4D4D4D;" vertex="1" parent="1">
          <mxGeometry x="990" y="1974.48" width="470" height="45.52" as="geometry" />
        </mxCell>
        <mxCell id="oUEj_hWbi_ymV9TPl1oD-60" value="" style="html=1;shadow=0;dashed=1;align=center;verticalAlign=middle;shape=mxgraph.arrows2.arrow;dy=0.6;dx=40;direction=east;notch=0;rounded=1;fontFamily=Helvetica;fontSize=12;fontColor=#FFFFFF;fillColor=#000000;gradientColor=#00CCCC;strokeColor=#000000;strokeWidth=2;" vertex="1" parent="1">
          <mxGeometry x="-600" y="2060" width="420" height="70" as="geometry" />
        </mxCell>
        <mxCell id="oUEj_hWbi_ymV9TPl1oD-61" value="&lt;div style=&quot;&quot;&gt;&lt;b&gt;&lt;font style=&quot;font-size: 30px;&quot;&gt;Focus&lt;/font&gt;&lt;/b&gt;&lt;br&gt;&lt;/div&gt;" style="rounded=0;whiteSpace=wrap;html=1;fontFamily=Helvetica;fontSize=11;fillColor=none;align=center;dashed=1;strokeWidth=3;strokeColor=none;" vertex="1" parent="1">
          <mxGeometry x="-165" y="2072.24" width="135" height="45.52" as="geometry" />
        </mxCell>
        <mxCell id="oUEj_hWbi_ymV9TPl1oD-62" value="" style="line;strokeWidth=4;direction=south;html=1;dashed=1;" vertex="1" parent="1">
          <mxGeometry x="-112.5" y="2117.76" width="30" height="242.24" as="geometry" />
        </mxCell>
        <mxCell id="oUEj_hWbi_ymV9TPl1oD-63" value="" style="html=1;shadow=0;dashed=1;align=center;verticalAlign=middle;shape=mxgraph.arrows2.arrow;dy=0.6;dx=40;direction=east;notch=0;rounded=1;fontFamily=Helvetica;fontSize=12;fontColor=#FFFFFF;fillColor=#000000;gradientColor=#00CCCC;strokeColor=#000000;strokeWidth=2;" vertex="1" parent="1">
          <mxGeometry x="-70" y="2130" width="420" height="70" as="geometry" />
        </mxCell>
        <mxCell id="oUEj_hWbi_ymV9TPl1oD-64" value="&lt;div style=&quot;&quot;&gt;&lt;font style=&quot;font-size: 30px;&quot;&gt;Crowdfund Phase - Formation and Financing&lt;/font&gt;&lt;br&gt;&lt;/div&gt;" style="rounded=0;whiteSpace=wrap;html=1;fontFamily=Helvetica;fontSize=11;fontColor=default;gradientColor=none;fillColor=#00FFFF;align=center;dashed=1;strokeWidth=3;strokeColor=#4D4D4D;" vertex="1" parent="1">
          <mxGeometry x="360" y="2142.24" width="630" height="45.52" as="geometry" />
        </mxCell>
        <mxCell id="oUEj_hWbi_ymV9TPl1oD-65" value="" style="html=1;shadow=0;dashed=1;align=center;verticalAlign=middle;shape=mxgraph.arrows2.arrow;dy=0.6;dx=40;direction=east;notch=0;rounded=1;fontFamily=Helvetica;fontSize=12;fontColor=#FFFFFF;fillColor=#000000;gradientColor=#00CCCC;strokeColor=#000000;strokeWidth=2;" vertex="1" parent="1">
          <mxGeometry x="-70" y="2250" width="420" height="70" as="geometry" />
        </mxCell>
        <mxCell id="oUEj_hWbi_ymV9TPl1oD-66" value="&lt;div style=&quot;&quot;&gt;&lt;font style=&quot;font-size: 30px;&quot;&gt;Governance Phase - Decision-making and Execution&lt;/font&gt;&lt;br&gt;&lt;/div&gt;" style="rounded=0;whiteSpace=wrap;html=1;fontFamily=Helvetica;fontSize=11;fontColor=default;gradientColor=none;fillColor=#00FFFF;align=center;dashed=1;strokeWidth=3;strokeColor=#4D4D4D;" vertex="1" parent="1">
          <mxGeometry x="360" y="2262.24" width="740" height="45.52" as="geometry" />
        </mxCell>
      </root>
    </mxGraphModel>
  </diagram>
</mxfile>
